<?xml version="1.0" encoding="UTF-8"?>
<svg xmlns="http://www.w3.org/2000/svg" width="30.8" height="30.8" viewBox="0 0 30.8 30.8">
  <g id="Layer_1" data-name="Layer 1">
    <rect x=".02" y=".03" width="30.77" height="30.77" rx="1" ry="1" style="fill: #303131;"/>
    <rect x=".02" y="1.05" width="30.77" height=".3" style="fill: #414242;"/>
    <rect x=".02" y="5.18" width="30.77" height=".3" style="fill: #414242;"/>
    <rect x="0" y="9.24" width="30.77" height=".33" style="fill: #414242;"/>
    <rect x="0" y="16.16" width="30.77" height=".56" style="fill: #414242;"/>
    <rect x=".02" y="7.33" width="30.77" height=".3" style="fill: #414242;"/>
    <rect x="0" y="11.76" width="30.77" height=".3" style="fill: #414242;"/>
    <rect x="0" y="18.58" width="30.77" height=".3" style="fill: #414242;"/>
    <rect x=".03" y="26.41" width="30.77" height=".3" transform="translate(30.82 53.12) rotate(180)" style="fill: #414242;"/>
    <rect x=".03" y="21.71" width="30.77" height=".3" transform="translate(30.83 43.71) rotate(180)" style="fill: #414242;"/>
    <rect x="0" y="17.61" width="30.77" height=".33" transform="translate(30.78 35.56) rotate(180)" style="fill: #414242;"/>
    <rect x=".03" y="20.65" width="30.77" height=".56" transform="translate(30.83 41.86) rotate(180)" style="fill: #414242;"/>
    <rect x=".03" y="23.67" width="30.77" height=".57" transform="translate(30.83 47.92) rotate(180)" style="fill: #414242;"/>
    <rect y="19.55" width="30.77" height=".3" transform="translate(30.77 39.4) rotate(180)" style="fill: #414242;"/>
    <rect x=".01" y="15.12" width="30.77" height=".3" transform="translate(30.79 30.55) rotate(180)" style="fill: #414242;"/>
    <rect x=".01" y="8.3" width="30.77" height=".3" transform="translate(30.79 16.91) rotate(180)" style="fill: #414242;"/>
    <rect x=".02" y="12.64" width="30.77" height=".3" transform="translate(30.81 25.58) rotate(180)" style="fill: #414242;"/>
    <rect x=".02" y="5.77" width="30.77" height=".3" style="fill: #414242;"/>
    <rect x=".02" y="6.74" width="30.77" height=".3" transform="translate(30.81 13.78) rotate(180)" style="fill: #414242;"/>
    <rect x=".02" y="4.15" width="30.77" height=".3" transform="translate(30.81 8.6) rotate(180)" style="fill: #414242;"/>
    <rect x=".03" y="1.99" width="30.77" height=".57" transform="translate(30.82 4.56) rotate(180)" style="fill: #414242;"/>
    <rect x=".03" y="27.07" width="30.77" height=".33" transform="translate(30.82 54.47) rotate(-180)" style="fill: #414242;"/>
    <rect x=".02" y="29" width="30.77" height=".3" transform="translate(30.81 58.31) rotate(-180)" style="fill: #414242;"/>
    <rect x=".03" y="25.43" width="30.77" height=".56" style="fill: #414242;"/>
    <rect x=".03" y="28.04" width="30.77" height=".3" style="fill: #414242;"/>
    <rect x=".02" y="29.6" width="30.77" height=".3" style="fill: #414242;"/>
    <rect x=".03" y="13.75" width="30.77" height=".57" transform="translate(30.83 28.06) rotate(180)" style="fill: #414242;"/>
    <rect x=".03" y="24.78" width="30.77" height=".3" transform="translate(30.83 49.87) rotate(180)" style="fill: #414242;"/>
    <rect x=".03" y="22.46" width="30.77" height=".3" style="fill: #414242;"/>
    <rect x=".03" y="23.06" width="30.77" height=".3" style="fill: #414242;"/>
    <rect x=".03" y="10.68" width="30.77" height=".3" transform="translate(30.83 21.65) rotate(180)" style="fill: #414242;"/>
    <rect x=".03" y="9.97" width="30.77" height=".3" transform="translate(30.83 20.25) rotate(180)" style="fill: #414242;"/>
    <rect x=".03" y="3.21" width="30.77" height=".3" style="fill: #414242;"/>
  </g>
  <g id="Layer_2" data-name="Layer 2">
    <circle cx="15.42" cy="15.42" r="12.5" style="fill: #221f20;"/>
    <circle cx="15.42" cy="15.41" r="12.25" style="fill: #deebcf;"/>
    <circle cx="15.42" cy="15.42" r="12.03" style="fill: #221f20;"/>
    <circle cx="15.42" cy="15.42" r="11.49" style="fill: #deebcf;"/>
    <circle cx="15.38" cy="15.42" r="11.24" style="fill: #221f20;"/>
    <circle cx="15.42" cy="15.41" r="10.71" style="fill: #deebcf;"/>
  </g>
  <g id="Layer_3" data-name="Layer 3">
    <text transform="translate(8.33 19.55)" style="fill: #221f20; font-family: Poppins-Medium, Poppins; font-size: 12px; font-weight: 500;"><tspan x="0" y="0">BE</tspan></text>
  </g>
</svg>